<?xml version="1.0" encoding="UTF-8"?>
<!DOCTYPE svg PUBLIC "-//W3C//DTD SVG 1.1//EN" "http://www.w3.org/Graphics/SVG/1.1/DTD/svg11.dtd">
<!-- Creator: CorelDRAW -->
<svg xmlns="http://www.w3.org/2000/svg" xml:space="preserve" width="2016px" height="2411px" version="1.1" style="shape-rendering:geometricPrecision; text-rendering:geometricPrecision; image-rendering:optimizeQuality; fill-rule:evenodd; clip-rule:evenodd"
viewBox="0 0 485.97 581.05"
 xmlns:xlink="http://www.w3.org/1999/xlink"
 xmlns:xodm="http://www.corel.com/coreldraw/odm/2003">
 <defs>
  <style type="text/css">
   <![CDATA[
    .fil1 {fill:#2B2B2A}
    .fil2 {fill:#232EE7}
    .fil0 {fill:#F7D102}
   ]]>
  </style>
 </defs>
 <g id="Layer_x0020_1">
  <metadata id="CorelCorpID_0Corel-Layer"/>
  <rect class="fil0" width="485.97" height="581.05" rx="28.92" ry="28.92"/>
  <path class="fil1" d="M189.08 262c-0.49,-2.67 -0.28,-11.02 -0.22,-14.13 0.25,-12.74 9.1,-8.6 36.08,-8.6 9.71,0 19.42,0 29.13,0 5.03,0 10.09,-0.06 15.12,-0.04 10.71,0.03 9.94,2.57 9.6,18.81 -0.12,5.51 -0.86,7.76 -5.85,8.43l-74.17 0.11c-5.46,0 -8.84,0.08 -9.69,-4.58zm-51.88 6.77c-9.26,1.74 -8.28,-1.72 -8.28,17.33 0,20.66 -0.98,15.69 8.05,18.07l0.25 83.35c-5.36,1.45 -9.35,-2.81 -8.15,13.54 20.91,6.52 55.15,2.61 75.68,-2.56 26.3,-6.63 65.11,-26.26 82.43,-44.14 3.8,-3.93 7.1,-6.31 10.84,-10.25 3.04,-3.22 7.26,-7.45 9.97,-11.14 3.02,-4.12 5.78,-7.25 9.15,-11.91 3.03,-4.18 5.65,-8.37 8.24,-12.87 3.36,-5.83 11.68,-22.04 13.02,-29.26 0.96,-5.19 0.77,-36.11 0.05,-41.96 -5.04,-41.13 -59.25,-31.2 -95.43,-31.2 -15.62,0 -71.56,-1.78 -82.15,2.14 -28.3,10.51 -23.66,38.76 -23.67,60.86z"/>
  <path class="fil2" d="M187.13 114.85c16.18,-0.22 22.17,-4.66 48.89,-2.35 115.1,9.96 154.91,121.56 91.65,214.06 -7.79,11.38 -15.03,19.68 -23.9,28.33 -49.21,48.06 -124.39,76.3 -191.92,54.31 -22.28,-7.26 -33.81,-14.9 -49.77,-28.51 -5.08,-4.33 -7.92,-9.06 -13.02,-13.39 6.96,17.47 33.78,38.93 52.08,47.65 29.33,13.97 48.71,14.59 83.37,14.25 -15.59,4.11 -30.49,4.95 -47.47,3.64 0.36,16.02 -1.2,28.67 8.04,39.53 7.52,8.83 16.71,13.74 33.68,13.61 0.43,-15.22 6.02,-17.64 21.08,-17.57l76.32 0c15.1,-0.06 20.72,2.05 21,17.59 16.2,-0.03 23.3,-2.6 31.75,-11.59 9.44,-10.04 9.91,-17.11 9.89,-33.66 -0.03,-27.69 1.42,-59.2 -0.15,-86.4 -2.26,1.78 -12.03,12.3 -20.62,18.81 -2.81,2.14 -5.26,4.02 -8.02,6 -6.43,4.61 -26.37,17.21 -34.8,19.35l26.12 -18.96c18,-16.03 34.04,-32.74 46.46,-53.97 42.09,-71.99 35.87,-158.95 -39.53,-200.15 -31.04,-16.96 -70.79,-20.72 -106.24,-13.96 -4.2,0.8 -11.81,3.3 -14.89,3.38z"/>
  <path class="fil1" d="M206.37 188.33c0.04,-8.6 -0.03,-17.21 -0.05,-25.82 -0.01,-6.11 0.39,-4.43 1.21,-8.36 0.31,-1.52 0.17,-1.27 0.36,-2.66 0.69,-5.06 1.31,-6.18 6.95,-6.18l46.25 0c5.62,0 6.25,1.22 6.94,6.2 0.32,2.24 0.09,1.38 0.59,3.43 0.62,2.53 0.09,-0.54 0.66,2.16 0.39,1.84 0.35,3.45 0.34,5.41 -0.02,8.59 -0.13,17.19 -0.03,25.79 -4.76,0.43 -23.15,-2.68 -31.59,-2.68 -9.04,-0.01 -26.08,3.1 -31.63,2.71zm-8.99 -5.67l-0.03 7.68c-14.49,4.18 -24.65,0.01 -25.29,10.06l25.77 0.23c4.71,-0.84 -0.43,-4.99 9.04,-4.99l62.26 0c9.24,0 4.26,4.14 9.04,4.97l25.78 -0.1c-0.73,-10.24 -10.56,-5.91 -25.37,-10.1l-0.03 -30.84c0,-5.97 1.5,-1.8 1.5,-8.04 0,-8.88 -3.92,-14.94 -10.7,-17.29 -4.27,-1.48 -8.64,-0.99 -13.35,-0.98 -12.37,0.04 2.85,-2.81 -24.03,-2.81 -8.08,0 -2.66,1.62 -8.16,2.67 -3.75,0.71 -28.04,-3.95 -27.99,17.43 0.01,6.11 1.23,3.61 1.58,9.01 0.44,7.03 -0.03,15.87 -0.02,23.1z"/>
  <path class="fil1" d="M162.97 118.5c2.77,6.97 2.65,5.27 -6.07,8.16 -4.08,1.34 -10.25,3.95 -14.21,4.88 -4.64,1.11 -11.02,-6.52 -15.2,-11.11 -2.78,-3.05 -2.05,-2.54 -3.97,-5.79 -3.2,4.99 3.84,12.54 5.85,16.81 -2.14,1.67 -2.43,0.88 -3.92,1.95 -4.81,3.43 -0.51,0.31 -2.64,4.43 -1.88,3.64 -5.01,3.07 -5.66,8.87 13.05,1.75 17.43,-5.31 31.12,-5.66 -3.22,3.46 -3.73,2 -3.4,6.31 6.65,3.81 8.83,-2.79 8.86,-2.83 1.85,-2.74 -0.71,-1.39 2.46,-2.9 5.04,-2.31 24.59,1.54 35.1,-3.73 -9.65,3.01 -26.87,0.96 -37.68,-0.45 4.61,-3.22 9.04,-4.16 13.93,-8.17 8.22,-6.77 6.46,-2.38 17.85,-4.3 -5.07,-1.71 -9.14,0.52 -11.66,-3.06 -0.99,-2.32 2.38,-10.67 2.69,-14.19 -3.31,1.12 -4.13,3.59 -5.83,6.58 -4.22,7.42 -2.21,3.34 -7.62,4.2z"/>
 </g>
</svg>
